<?xml version="1.0" encoding="UTF-8" ?>
<!DOCTYPE svg PUBLIC "-//W3C//DTD SVG 1.1//EN" "http://www.w3.org/Graphics/SVG/1.1/DTD/svg11.dtd">
<svg width="40pt" height="40pt" viewBox="0 0 40 40" version="1.1" xmlns="http://www.w3.org/2000/svg">
<g id="#30dde8fe">
<path fill="#30dde8" opacity="1.00" d=" M 18.27 0.00 L 25.33 0.00 C 25.78 1.21 26.53 3.29 24.74 3.82 C 21.74 3.64 18.68 2.73 15.72 3.76 C 7.53 5.75 1.84 14.52 3.45 22.82 C 4.67 31.04 12.73 37.46 21.03 36.76 C 29.60 36.45 36.99 28.61 36.78 20.03 C 36.98 16.20 35.25 12.73 33.22 9.62 C 32.22 7.86 34.91 5.60 36.22 7.56 C 38.18 10.79 39.33 14.51 40.00 18.21 L 40.00 21.28 C 39.47 31.02 31.13 39.40 21.40 40.00 L 18.72 40.00 C 8.99 39.47 0.63 31.15 0.00 21.43 L 0.00 18.44 C 0.70 8.91 8.77 0.82 18.27 0.00 Z" />
<path fill="#30dde8" opacity="1.00" d=" M 29.17 3.10 C 31.56 2.14 33.15 5.71 30.89 6.87 C 28.46 7.95 26.81 4.23 29.17 3.10 Z" />
<path fill="#30dde8" opacity="1.00" d=" M 13.23 8.40 C 13.87 8.68 15.17 9.23 15.81 9.51 C 15.30 10.15 14.28 11.45 13.77 12.09 C 15.62 12.52 19.14 10.96 19.21 13.86 C 17.11 13.87 15.01 13.87 12.91 13.85 C 12.52 14.51 11.76 15.81 11.37 16.46 C 13.59 16.48 15.80 16.45 18.01 16.31 C 18.01 16.80 18.01 17.80 18.01 18.29 C 17.26 18.20 15.75 18.01 15.00 17.92 C 15.00 18.70 15.00 20.26 15.00 21.04 C 15.75 21.00 17.25 20.91 18.00 20.86 C 18.00 21.32 18.00 22.23 18.00 22.68 C 17.26 22.63 15.76 22.53 15.02 22.48 C 15.00 23.97 14.98 25.46 14.97 26.94 C 15.88 26.23 16.74 25.48 17.64 24.77 C 19.37 27.75 14.74 28.76 13.23 30.68 C 12.39 28.01 13.11 25.23 13.02 22.50 C 12.15 22.53 10.41 22.59 9.54 22.63 L 9.73 20.83 C 10.55 20.89 12.19 20.99 13.01 21.05 C 13.00 20.35 13.00 18.95 12.99 18.25 C 11.46 17.95 10.09 17.20 9.07 16.01 C 10.86 13.72 12.30 11.17 13.23 8.40 Z" />
<path fill="#30dde8" opacity="1.00" d=" M 21.71 8.21 C 22.44 8.26 23.90 8.37 24.63 8.43 C 24.43 9.35 24.03 11.21 23.83 12.14 C 25.89 12.15 27.94 12.14 30.00 12.04 C 30.01 12.61 30.02 13.74 30.03 14.31 C 28.03 14.03 26.01 13.98 24.00 13.96 C 24.00 15.69 24.00 17.41 24.00 19.14 C 25.73 19.13 27.45 19.12 29.17 19.12 C 28.92 22.75 28.87 26.39 29.23 30.02 C 28.68 30.01 27.57 30.00 27.01 30.00 C 27.00 29.50 26.99 28.50 26.99 28.00 C 25.00 28.00 23.01 28.00 21.01 28.00 C 21.01 28.65 20.99 29.95 20.98 30.60 C 20.41 30.55 19.26 30.47 18.69 30.43 C 19.14 26.67 19.10 22.88 18.82 19.11 C 19.62 19.12 21.20 19.13 21.99 19.14 C 21.96 15.49 22.20 11.83 21.71 8.21 M 21.00 21.00 C 21.00 22.71 21.00 24.42 21.00 26.13 C 23.00 26.13 25.00 26.13 27.00 26.13 C 27.00 24.42 27.00 22.71 27.00 21.00 C 25.00 21.00 23.00 21.00 21.00 21.00 Z" />
</g>
</svg>
